<svg id="Layer_1" data-name="Layer 1" xmlns="http://www.w3.org/2000/svg" viewBox="0 0 500 500"><defs><style>.cls-1{fill:#ea77ff;}.cls-2{fill:#261300;}</style></defs><rect class="cls-1" x="67.5" y="67.5" width="365" height="365"/><rect class="cls-2" x="83.56" y="83.56" width="332.88" height="332.88"/><path class="cls-1" d="M162.77,156.4c0-1.25.21-1.76,1.29-1.76,8.21-.25,24.41-.5,40.82-.5,42.33,0,58.48,24.63,58.7,53.76,0,39.93-29.76,55.07-61.51,55.07H188.68v57c0,1.51-.43,2-1.51,2H164.28c-1.08,0-1.51-.5-1.51-1.76Zm25.91,82.21c1.73.25,5,.5,14,.5,17.06,0,33.48-4.86,33.48-30,0-20.09-11-30.41-31.32-30.41-8.42,0-14.47.25-16.2.5Z"/><path class="cls-1" d="M340.21,195.65a9.76,9.76,0,0,1,2.94.25c1.13.25,1.36.5,1.36,2.51v21.78c0,1.26-.45,1.76-1.81,1.76-12.9-.5-19-.91-28.21,2.86v94.47c0,1.51-.45,2-1.81,2H288.93c-1.36,0-1.81-.5-1.81-2V234.66c0-11-.46-19.4-1.13-27.68-.23-1,.22-1.51,1.35-1.51C287.34,205.47,309.23,197.32,340.21,195.65Z"/></svg>