<?xml version="1.0" encoding="utf-8"?>
<!-- Generator: Adobe Illustrator 24.1.1, SVG Export Plug-In . SVG Version: 6.00 Build 0)  -->
<svg version="1.1" id="Layer_1" xmlns="http://www.w3.org/2000/svg" xmlns:xlink="http://www.w3.org/1999/xlink" x="0px" y="0px"
	 viewBox="0 0 209.07 209.07" style="enable-background:new 0 0 209.07 209.07;" xml:space="preserve">
<style type="text/css">
	.st0{fill-rule:evenodd;clip-rule:evenodd;fill:#020202;}
</style>
<g>
	<path class="st0" d="M164.82,63.2c0.92-5.18,0.9-10.52-2.3-14.55c-4.47-5.65-13.98-5.86-20.49-4.86
		c-5.3,0.81-23.23,8.72-29.33,27.65c10.81-0.82,16.47,0.78,15.43,12.68c-0.44,4.98-2.95,10.43-5.76,15.66
		c-3.24,6.03-9.32,17.86-17.29,9.33c-7.18-7.68-6.64-22.36-8.28-32.14c-0.91-5.49-1.88-12.32-3.68-17.97
		c-1.55-4.85-5.1-10.7-9.45-11.97c-4.67-1.37-10.43,0.77-13.82,2.76c-10.79,6.34-19.01,15.36-28.34,22.8v0.7
		c1.85,1.77,2.35,4.67,5.07,5.06c6.42,0.95,12.54-5.99,16.81,1.23c2.6,4.41,3.41,9.24,5.07,13.99c2.22,6.33,3.94,13.22,5.76,20.49
		c3.08,12.32,6.86,30.74,17.51,35.25c5.43,2.31,13.6-0.78,17.74-3.23c11.2-6.63,19.93-16.24,27.4-26.02
		C153.97,96.91,163.4,70.69,164.82,63.2z"/>
</g>
</svg>
